<svg width="152" height="152" viewBox="0 0 152 152" fill="none" xmlns="http://www.w3.org/2000/svg">
<path d="M142.543 41.3992L136.483 73.1024C135.635 72.6073 134.755 72.1724 133.846 71.8008C134.213 69.1094 134.081 67.615 133.51 66.7668C133.593 66.6261 133.651 66.4719 133.681 66.3111C133.752 65.9332 133.672 65.5423 133.455 65.2242C133.239 64.9062 132.905 64.6871 132.527 64.6152C132.149 64.5433 131.758 64.6244 131.441 64.8407C131.122 65.0571 130.903 65.3909 130.831 65.7688C130.824 65.8125 130.816 65.8584 130.811 65.9014C129.689 66.4053 128.953 68.1242 128.211 70.1866L128.196 70.3372C123.628 69.7928 119.005 70.7273 115.007 73.0037C114.699 67.557 116.601 60.4072 114.923 58.0142C115.009 57.8736 115.067 57.7182 115.096 57.5562C115.136 57.3486 115.13 57.1349 115.078 56.9299C115.027 56.7249 114.931 56.5337 114.798 56.3696C114.664 56.2055 114.497 56.0725 114.307 55.9799C114.117 55.8873 113.909 55.8374 113.698 55.8336C113.486 55.8298 113.277 55.8723 113.084 55.958C112.891 56.0437 112.719 56.1706 112.579 56.3299C112.441 56.489 112.338 56.6767 112.279 56.8797C112.22 57.0827 112.207 57.2961 112.239 57.505C108.435 59.7866 107.814 74.0093 102.862 73.2101C97.8762 72.4026 105.265 52.148 101.566 47.5728C101.679 47.4094 101.756 47.2233 101.792 47.0274C101.827 46.8403 101.826 46.6481 101.787 46.4616C101.749 46.2751 101.674 46.098 101.567 45.9404C101.46 45.7829 101.323 45.6479 101.164 45.5434C101.004 45.4388 100.827 45.3665 100.64 45.3307C100.452 45.295 100.26 45.2964 100.073 45.335C99.8873 45.3735 99.7103 45.4484 99.5521 45.5554C99.3947 45.6623 99.2599 45.7993 99.1552 45.9584C99.0505 46.1176 98.9782 46.2957 98.9428 46.4828C98.9171 46.6152 98.9104 46.7507 98.9224 46.8851C93.4351 49.66 93.1323 79.2955 85.224 77.969C77.4581 76.6674 86.0563 53.2176 82.2524 48.5655C82.2803 48.4922 82.3014 48.4165 82.3165 48.3396C82.3519 48.1523 82.3511 47.9599 82.312 47.7731C82.2735 47.5865 82.1982 47.4092 82.0913 47.2515C81.9843 47.0939 81.8472 46.9588 81.6875 46.8541C81.5286 46.7494 81.3501 46.6771 81.1633 46.6414C80.9757 46.6056 80.7829 46.6071 80.5968 46.6457C80.41 46.6843 80.2323 46.7593 80.0748 46.8665C79.9174 46.9736 79.7818 47.1107 79.6771 47.27C79.5724 47.4294 79.5001 47.6077 79.4647 47.795C79.4519 47.8639 79.4444 47.9336 79.4414 48.0036C74.0617 50.3673 71.0819 69.7308 67.9424 69.3136L75.7188 28.625L142.543 41.3992ZM93.4396 35.5895C93.4976 35.2862 93.4644 34.9726 93.3439 34.6884C93.2242 34.404 93.0223 34.1618 92.7639 33.9922C92.5063 33.8226 92.2035 33.7333 91.8947 33.7356C91.5866 33.7379 91.2853 33.8317 91.03 34.0051C90.7746 34.1786 90.5765 34.4237 90.4605 34.7098C90.3445 34.9959 90.3159 35.3099 90.3784 35.6123C90.4409 35.9146 90.5916 36.1915 90.8115 36.4082C91.0315 36.6248 91.3102 36.7714 91.6137 36.8293C92.0205 36.9055 92.44 36.8179 92.782 36.5857C93.124 36.3534 93.3605 35.9953 93.4396 35.5895ZM86.909 34.3391C86.967 34.0358 86.9338 33.7223 86.8133 33.438C86.6936 33.1536 86.4917 32.9114 86.2333 32.7418C85.9757 32.5722 85.6729 32.4829 85.3641 32.4852C85.056 32.4875 84.7547 32.5813 84.4994 32.7547C84.244 32.9282 84.0459 33.1734 83.9299 33.4595C83.8139 33.7455 83.7853 34.0596 83.8478 34.3619C83.9103 34.6642 84.061 34.9411 84.2809 35.1578C84.5009 35.3744 84.7796 35.521 85.0831 35.5789C85.4899 35.6566 85.9102 35.5696 86.2529 35.3371C86.5949 35.1046 86.8314 34.7456 86.909 34.3391ZM80.3799 33.0925C80.4379 32.7894 80.404 32.476 80.2835 32.192C80.1637 31.908 79.9611 31.6661 79.7035 31.4967C79.4459 31.3274 79.1431 31.2384 78.835 31.2409C78.5262 31.2433 78.2256 31.3372 77.9703 31.5107C77.7157 31.6841 77.5176 31.9292 77.4016 32.2152C77.2856 32.5011 77.2577 32.8149 77.3202 33.117C77.3827 33.4191 77.5334 33.6958 77.7526 33.9123C77.9725 34.1288 78.252 34.2751 78.5548 34.3331C78.9615 34.4099 79.3818 34.3224 79.7238 34.0898C80.0658 33.8573 80.3016 33.4987 80.3799 33.0925Z" fill="white"/>
<path d="M140.874 76.4883C144.909 80.5234 147.177 85.9972 147.177 91.7037C147.177 97.4103 144.909 102.884 140.874 106.919C136.839 110.954 131.365 113.222 125.659 113.222C119.952 113.222 114.478 110.954 110.443 106.919L125.659 91.7037L140.874 76.4883Z" fill="#FFE8BB"/>
<path d="M140.874 76.4891L125.659 91.7031L110.443 76.4876C113.448 73.4862 117.273 71.44 121.437 70.606C125.602 69.772 129.919 70.1875 133.848 71.8002C134.756 72.1718 135.637 72.6068 136.484 73.1018C138.088 74.0363 139.564 75.1749 140.874 76.4891Z" fill="#313553"/>
<path d="M133.515 66.7666C134.085 67.6148 134.217 69.1092 133.85 71.8005C132.043 71.0572 130.142 70.5646 128.201 70.3362L128.216 70.1856C128.957 68.1232 129.693 66.4043 130.816 65.9004C130.784 66.23 130.866 66.5605 131.048 66.837C131.231 67.1136 131.502 67.3194 131.817 67.4205C132.132 67.5216 132.473 67.5118 132.782 67.3927C133.09 67.2736 133.35 67.0524 133.515 66.7659L133.515 66.7666Z" fill="white"/>
<path d="M132.531 64.616C132.909 64.6879 133.243 64.907 133.459 65.2249C133.675 65.5429 133.756 65.9337 133.684 66.3115C133.655 66.4723 133.597 66.6265 133.514 66.7673C133.156 66.2701 132.621 65.9293 132.019 65.8152C131.619 65.7025 131.193 65.7332 130.813 65.9018C130.819 65.8588 130.826 65.8129 130.835 65.7692C130.87 65.5819 130.942 65.4034 131.046 65.244C131.151 65.0847 131.286 64.9475 131.443 64.8403C131.601 64.7332 131.778 64.6582 131.964 64.6197C132.151 64.5812 132.344 64.5799 132.531 64.616Z" fill="#313553"/>
<path d="M133.513 66.7669C133.347 67.0534 133.088 67.2746 132.779 67.3936C132.47 67.5127 132.13 67.5225 131.814 67.4214C131.499 67.3204 131.228 67.1145 131.046 66.838C130.864 66.5615 130.782 66.2309 130.813 65.9014C131.193 65.7328 131.619 65.7022 132.018 65.8148C132.62 65.9291 133.155 66.2699 133.513 66.7669Z" fill="#313553"/>
<path d="M125.659 91.7018L110.444 106.917C108.445 104.92 106.859 102.548 105.777 99.937C104.695 97.3262 104.138 94.5279 104.138 91.7018C104.138 88.8756 104.695 86.0773 105.777 83.4666C106.859 80.8559 108.445 78.4839 110.444 76.4863L125.659 91.7018Z" fill="#7C3AED"/>
<path d="M113.947 55.8628C114.135 55.8982 114.312 55.9702 114.472 56.0747C114.631 56.1792 114.769 56.3141 114.876 56.4716C114.983 56.6292 115.058 56.8064 115.097 56.993C115.135 57.1796 115.136 57.372 115.1 57.5591C115.072 57.7212 115.013 57.8764 114.927 58.0171C114.667 57.6288 114.266 57.3568 113.809 57.2586C113.545 57.1935 113.27 57.182 113.001 57.2248C112.733 57.2677 112.475 57.3639 112.244 57.5079C112.208 57.2785 112.228 57.0439 112.302 56.8238C112.376 56.6037 112.502 56.4046 112.669 56.2433C112.835 56.0821 113.039 55.9633 113.262 55.8971C113.484 55.8309 113.719 55.8191 113.947 55.8628Z" fill="#313553"/>
<path d="M114.927 58.0165C116.605 60.4073 114.701 67.5571 115.012 73.006C112.229 74.593 109.835 76.7805 108.005 79.4093C106.175 82.0374 104.953 85.0413 104.429 88.2011L91.0291 85.6401L65.7451 80.8073L67.6907 70.625L67.9431 69.3166C71.0826 69.7339 74.0616 50.3704 79.4488 48.0075C79.4338 48.3532 79.543 48.6928 79.7569 48.9651C79.9701 49.2373 80.2744 49.4243 80.6133 49.4922C80.953 49.5601 81.3056 49.5045 81.6069 49.3354C81.9089 49.1664 82.1409 48.8949 82.2599 48.5701C86.0638 53.2221 77.4655 76.672 85.2315 77.9736C93.1405 79.3001 93.4418 49.6646 98.9299 46.8896C98.957 47.1863 99.0753 47.4672 99.2681 47.6943C99.4602 47.9214 99.7185 48.0836 100.007 48.1588C100.295 48.234 100.599 48.2185 100.879 48.1145C101.157 48.0104 101.398 47.8229 101.566 47.5774C105.266 52.1525 97.8754 72.4072 102.863 73.2147C107.815 74.0138 108.437 59.7912 112.24 57.5096C112.286 57.8058 112.421 58.0808 112.63 58.2965C112.838 58.5122 113.107 58.6581 113.402 58.7139C113.696 58.7698 114.001 58.7329 114.273 58.6084C114.546 58.4839 114.773 58.2779 114.923 58.0188L114.927 58.0165Z" fill="white"/>
<path d="M113.808 57.2573C114.266 57.3555 114.666 57.6275 114.926 58.0158C114.776 58.2749 114.549 58.481 114.276 58.6055C114.003 58.73 113.699 58.7668 113.405 58.7109C113.11 58.6551 112.84 58.5092 112.633 58.2936C112.424 58.0778 112.288 57.8029 112.243 57.5066C112.474 57.3627 112.732 57.2664 113.001 57.2237C113.269 57.1808 113.544 57.1922 113.808 57.2573Z" fill="#313553"/>
<path d="M100.646 45.3319C101.024 45.4046 101.357 45.6241 101.574 45.9423C101.79 46.2606 101.871 46.6516 101.8 47.0297C101.763 47.2259 101.684 47.4118 101.57 47.5751C101.214 47.1225 100.705 46.816 100.139 46.7141C99.7266 46.6328 99.2995 46.6939 98.9267 46.8874C98.9146 46.753 98.9214 46.6176 98.947 46.4851C98.9824 46.2977 99.0547 46.1192 99.1594 45.9597C99.2641 45.8003 99.399 45.663 99.5571 45.5559C99.7146 45.4487 99.8923 45.3738 100.079 45.3354C100.266 45.297 100.458 45.2958 100.646 45.3319Z" fill="#313553"/>
<path d="M101.569 47.5757C101.4 47.8212 101.16 48.0087 100.881 48.1128C100.602 48.2168 100.297 48.2323 100.01 48.1571C99.7213 48.0819 99.4629 47.9198 99.2708 47.6927C99.078 47.4656 98.9597 47.1846 98.9326 46.888C99.3055 46.6945 99.7326 46.6334 100.145 46.7147C100.709 46.8182 101.215 47.1245 101.569 47.5757Z" fill="#313553"/>
<path d="M92.1994 33.7622C92.5029 33.8198 92.7824 33.9663 93.0031 34.183C93.2238 34.3997 93.3744 34.677 93.4377 34.9796C93.5002 35.2823 93.4716 35.5968 93.3556 35.8832C93.2396 36.1698 93.0415 36.4154 92.7854 36.5891C92.5301 36.7628 92.2288 36.8568 91.9199 36.8591C91.6104 36.8614 91.3076 36.7721 91.0492 36.6022C90.7908 36.4324 90.589 36.1897 90.4684 35.905C90.3487 35.6203 90.3155 35.3063 90.3735 35.0028C90.4526 34.5968 90.6884 34.2385 91.0304 34.006C91.3731 33.7736 91.7926 33.686 92.1994 33.7622Z" fill="#FFE8BB"/>
<path d="M85.6674 32.513C85.9709 32.5707 86.2496 32.7172 86.4703 32.9337C86.6903 33.1504 86.8409 33.4273 86.9034 33.7296C86.9659 34.0319 86.9373 34.346 86.8213 34.6321C86.7061 34.9183 86.5072 35.1636 86.2519 35.3371C85.9965 35.5106 85.696 35.6044 85.3872 35.6068C85.0783 35.6091 84.7755 35.5198 84.5179 35.3502C84.2596 35.1807 84.0577 34.9383 83.9379 34.654C83.8174 34.3696 83.7843 34.056 83.8423 33.7528C83.9198 33.3464 84.1556 32.9876 84.4983 32.7551C84.8403 32.5226 85.2606 32.4355 85.6674 32.513Z" fill="#FFE8BB"/>
<path d="M80.604 99.8955L85.2455 124.499L81.5591 125.195L76.9199 100.591L80.604 99.8955Z" fill="#7C3AED"/>
<path d="M81.1684 46.6428C81.5465 46.7154 81.8802 46.9351 82.0964 47.2535C82.3126 47.5719 82.3939 47.9632 82.3224 48.3414C82.3073 48.4184 82.2862 48.494 82.2584 48.5673C81.9299 48.1524 81.4554 47.8782 80.9319 47.8005C80.428 47.7222 79.9113 47.7932 79.4473 48.0047C79.4503 47.9347 79.4578 47.8649 79.4706 47.796C79.5429 47.418 79.7629 47.0844 80.0807 46.8681C80.3994 46.6518 80.7903 46.5709 81.1684 46.6428Z" fill="#313553"/>
<path d="M80.9323 47.8015C81.4558 47.8792 81.9303 48.1534 82.2588 48.5683C82.1397 48.8931 81.9077 49.1645 81.6057 49.3336C81.3044 49.5027 80.9519 49.5583 80.6122 49.4903C80.2732 49.4225 79.9689 49.2355 79.7557 48.9632C79.5418 48.691 79.4326 48.3514 79.4477 48.0056C79.9117 47.7941 80.4284 47.7232 80.9323 47.8015Z" fill="#313553"/>
<path d="M78.0887 86.5586L74.4033 87.2538L76.9212 100.598L80.606 99.903L78.0887 86.5586Z" fill="#FFE8BB"/>
<path d="M79.14 31.2655C79.4436 31.3233 79.7223 31.4697 79.943 31.6863C80.1629 31.9029 80.3136 32.1798 80.3761 32.4822C80.4386 32.7844 80.41 33.0985 80.294 33.3847C80.1787 33.6708 79.9799 33.9161 79.7245 34.0897C79.4692 34.2631 79.1686 34.357 78.8598 34.3593C78.551 34.3617 78.2482 34.2723 77.9906 34.1028C77.7322 33.9331 77.5303 33.6909 77.4106 33.4065C77.2901 33.1222 77.2569 32.8085 77.3149 32.5054C77.3933 32.0993 77.629 31.7408 77.971 31.5084C78.3137 31.276 78.734 31.1886 79.14 31.2655Z" fill="#FFE8BB"/>
<path d="M72.8694 116.146L74.8165 126.465V126.467L71.1324 127.16L69.1846 116.84L72.8694 116.146Z" fill="#7C3AED"/>
<path d="M67.6619 88.5234L63.9766 89.2187L69.1885 116.845L72.8738 116.149L67.6619 88.5234Z" fill="#FFE8BB"/>
<path d="M60.8863 109.866L64.3874 128.433L60.7025 129.128L57.1992 110.561L60.8833 109.866H60.8863Z" fill="#7C3AED"/>
<path d="M57.2311 90.4854L60.8873 109.867H60.8843L57.2002 110.562L53.5439 91.1806L57.2311 90.4854Z" fill="#FFE8BB"/>
<path d="M56.0418 30.8235C57.1593 35.0585 56.8414 39.5445 55.1379 43.5796C52.2049 50.3976 51.4293 57.95 52.9151 65.2217L52.9942 65.6044C53.1941 66.5513 53.0246 67.5387 52.5206 68.3648C52.0166 69.1909 51.2159 69.7932 50.2825 70.0485L49.6581 70.2112L49.6506 70.1833L42.1551 41.576C41.6105 44.4986 39.9601 44.4835 38.5621 43.4546C39.4743 41.3922 39.2882 38.0569 37.3908 38.5533C35.3668 39.0805 36.7498 42.1206 38.5621 43.4546C37.8518 45.0643 36.4719 45.8989 34.7206 43.5239L42.2146 72.135L42.2221 72.1606L41.7385 72.2879C41.4362 72.3631 41.1258 72.4015 40.8143 72.4024C40.0072 72.4006 39.2216 72.1418 38.5715 71.6634C37.9214 71.185 37.4406 70.5121 37.1987 69.7419C34.9334 62.5468 30.5185 56.2182 24.5481 51.6077C22.0468 49.6659 20.0444 47.1559 18.7068 44.2859C17.3692 41.4158 16.7349 38.2682 16.8565 35.1041C16.9781 31.9399 17.852 28.8503 19.4059 26.0913C20.9598 23.3324 23.1489 20.9835 25.7917 19.2393C28.4346 17.4952 31.455 16.406 34.6028 16.0622C37.7506 15.7183 40.935 16.1297 43.892 17.2621C46.8491 18.3945 49.4937 20.2154 51.6066 22.5738C53.7196 24.9322 55.24 27.7602 56.0418 30.8235Z" fill="#FFE8BB"/>
<path d="M54.1192 74.9995C54.1837 75.2419 54.1996 75.4947 54.166 75.7433C54.1324 75.9919 54.0499 76.231 53.9233 76.448C53.7967 76.6641 53.6285 76.854 53.4284 77.0054C53.2282 77.156 53.0002 77.2667 52.7573 77.3293L43.2876 79.8089C43.045 79.8722 42.7922 79.8873 42.5439 79.8534C42.2955 79.8187 42.0563 79.7359 41.8399 79.6093C41.6235 79.4828 41.4343 79.314 41.2829 79.1144C41.1316 78.9148 41.0211 78.6866 40.9578 78.4441C40.9158 78.2866 40.8946 78.1239 40.8945 77.9605C40.8951 77.5387 41.0353 77.1289 41.2932 76.7945C41.5512 76.4608 41.9123 76.2212 42.3204 76.1143L51.7894 73.6346C52.2034 73.5265 52.6415 73.5597 53.0345 73.7288C53.3001 73.8441 53.5359 74.0185 53.7239 74.2386C53.9118 74.4589 54.047 74.7191 54.1192 74.9995Z" fill="#7C3AED"/>
<path d="M53.1776 126.261L49.4922 126.955L50.2739 131.101L53.9594 130.407L53.1776 126.261Z" fill="#7C3AED"/>
<path d="M53.1793 77.25C53.2615 77.5671 53.3032 77.8925 53.3036 78.2202C53.3024 79.0638 53.022 79.8833 52.5061 80.5515C51.9903 81.2188 51.2679 81.6971 50.4518 81.911L47.2565 82.7464C46.7714 82.8737 46.2659 82.9046 45.7689 82.8368C45.2718 82.7682 44.7931 82.6033 44.3602 82.3502C43.9271 82.0963 43.5483 81.7604 43.2454 81.3604C42.9424 80.9605 42.7213 80.5048 42.5947 80.0197L53.1793 77.25Z" fill="#7C3AED"/>
<path d="M46.8004 92.4541L53.1758 126.257L49.4917 126.953L43.1133 93.1493L46.8004 92.4541Z" fill="#FFE8BB"/>
<path d="M53.1463 71.2744C53.1866 71.4327 53.2071 71.5954 53.2073 71.7588C53.2075 72.1812 53.0676 72.5917 52.8096 72.9261C52.5516 73.2606 52.19 73.5001 51.7814 73.6072L42.3124 76.0869C42.024 76.163 41.7216 76.1705 41.4299 76.1072C41.1382 76.0447 40.8655 75.9137 40.6342 75.7253C40.4122 75.5456 40.2331 75.3187 40.1097 75.0611C39.9864 74.8036 39.9219 74.5217 39.9209 74.2362C39.9215 73.8142 40.0617 73.4043 40.3196 73.0704C40.5775 72.7364 40.9387 72.4972 41.3468 72.39L41.7392 72.2883L42.2228 72.161L49.6573 70.2154L50.2817 70.0527L50.8158 69.9126C51.3054 69.7847 51.8257 69.8563 52.2626 70.1117C52.6995 70.3669 53.0173 70.7851 53.1463 71.2744Z" fill="#7C3AED"/>
<path d="M49.6472 70.1873L49.6548 70.2151L42.2203 72.1608L42.2127 72.1351L34.7188 43.5241C36.4708 45.899 37.8507 45.0644 38.5603 43.4548C39.9583 44.4837 41.6086 44.4987 42.1532 41.5762L49.6472 70.1873Z" fill="#FFE8BB"/>
<path d="M37.3895 38.5536C39.2869 38.0572 39.4729 41.3926 38.5607 43.455C36.7484 42.121 35.3655 39.0831 37.3895 38.5536Z" fill="#FFE8BB"/>
<path d="M33.7521 104.408C34.2101 106.838 33.6839 109.352 32.2892 111.395C30.8945 113.438 28.7455 114.844 26.3146 115.303L25.8311 112.734C27.0826 112.498 28.2413 111.911 29.1718 111.041C30.1023 110.172 30.7664 109.056 31.0864 107.823C31.4065 106.59 31.3694 105.292 30.9794 104.08C30.5894 102.867 29.8626 101.791 28.8839 100.976L30.6405 99.043C32.2624 100.421 33.361 102.315 33.7521 104.408Z" fill="#7C3AED"/>
<path d="M30.6402 99.0429L28.8836 100.976C27.772 100.047 26.3897 99.5032 24.9433 99.4248C23.4968 99.3465 22.064 99.7382 20.8586 100.542C19.6533 101.345 18.7402 102.517 18.2558 103.882C17.7714 105.247 17.7416 106.732 18.1711 108.116L18.1296 108.129L15.5942 108.608C15.5249 108.363 15.4692 108.116 15.421 107.864C15.0625 105.967 15.3016 104.006 16.1053 102.25C16.9089 100.495 18.2376 99.0324 19.9078 98.0645C21.5781 97.0958 23.5076 96.6702 25.4303 96.845C27.3528 97.0205 29.1737 97.7873 30.6417 99.0414L30.6402 99.0429Z" fill="#FFE8BB"/>
<path d="M28.3366 130.943L29.1185 135.086L22.1344 136.405L21.3525 132.259L28.3366 130.943Z" fill="#313553"/>
<path d="M27.1728 124.766L27.9547 128.908L20.9676 130.227L20.1865 126.082L27.1728 124.766Z" fill="#313553"/>
<path d="M26.8537 82.6047C26.9215 82.9678 26.8803 83.3429 26.7352 83.6819C26.59 84.0216 26.3475 84.3108 26.0383 84.5127C25.729 84.7138 25.3669 84.82 24.9977 84.8155C24.6284 84.8117 24.2687 84.6988 23.9638 84.4901C23.6588 84.2822 23.4226 83.9884 23.2846 83.6457C23.1467 83.303 23.1134 82.9271 23.1889 82.5656C23.2644 82.2048 23.4453 81.8733 23.7088 81.615C23.9723 81.3559 24.3066 81.1811 24.6693 81.1126C24.9107 81.0666 25.1588 81.0696 25.3992 81.1201C25.6397 81.1698 25.868 81.267 26.0708 81.4056C26.2736 81.5442 26.4472 81.7219 26.5816 81.9276C26.7159 82.1332 26.8084 82.363 26.8537 82.6047Z" fill="#FFE8BB"/>
<path d="M26.0058 118.591L26.7877 122.733L19.8006 124.052L19.0195 119.907L26.0058 118.591Z" fill="#313553"/>
<path d="M25.8308 112.734L26.3144 115.303C24.0133 115.737 21.6332 115.29 19.6469 114.049C17.6605 112.809 16.2134 110.867 15.5928 108.609L18.1282 108.13L18.1696 108.117C18.6568 109.693 19.707 111.034 21.12 111.886C22.5329 112.738 24.2098 113.04 25.8308 112.734Z" fill="#313553"/>
<path d="M19.0319 84.0786C19.1003 84.4417 19.0596 84.8168 18.9149 85.1565C18.7702 85.4962 18.528 85.7855 18.2189 85.9881C17.9099 86.19 17.5478 86.2962 17.1785 86.2924C16.8092 86.2894 16.4491 86.1764 16.144 85.9685C15.8388 85.7599 15.6021 85.4661 15.4639 85.1241C15.3256 84.7814 15.292 84.4055 15.3674 84.044C15.4427 83.6824 15.6235 83.351 15.8869 83.0919C16.1504 82.8335 16.4847 82.6588 16.8475 82.5895C17.0887 82.5435 17.3366 82.5458 17.5769 82.5963C17.8173 82.646 18.0454 82.7431 18.2482 82.8817C18.4511 83.0196 18.6247 83.1966 18.7592 83.4022C18.8937 83.6079 18.9863 83.8376 19.0319 84.0786Z" fill="#FFE8BB"/>
<path d="M11.2101 85.5563C11.278 85.9193 11.2367 86.2944 11.0916 86.6334C10.9464 86.9731 10.7039 87.2624 10.3947 87.4642C10.0855 87.6653 9.72332 87.7715 9.35408 87.767C8.98492 87.7633 8.62509 87.6503 8.32018 87.4416C8.01531 87.2337 7.77897 86.94 7.64106 86.5972C7.50314 86.2545 7.46983 85.8787 7.54532 85.5171C7.62082 85.1563 7.80174 84.8249 8.06523 84.5665C8.32869 84.3074 8.66298 84.1326 9.02574 84.0641C9.26716 84.0181 9.51527 84.0204 9.75586 84.0709C9.99637 84.1213 10.2247 84.2185 10.4276 84.3571C10.6305 84.4957 10.8041 84.6727 10.9384 84.8783C11.0727 85.0847 11.165 85.3145 11.2101 85.5563Z" fill="#FFE8BB"/>
<path d="M50.2804 70.0522C51.2138 69.7969 52.0144 69.1946 52.5184 68.3685C53.0225 67.5424 53.1919 66.555 52.9921 65.6081L52.913 65.2254C51.4271 57.9536 52.2028 50.4013 55.1358 43.5833C56.5753 40.1552 57.027 36.3927 56.4395 32.7213C55.8521 29.0499 54.2489 25.6161 51.8116 22.8084C49.3743 20.0006 46.1999 17.9309 42.6475 16.8333C39.0951 15.7356 35.3064 15.654 31.71 16.5974C28.1137 17.5409 24.853 19.4719 22.2968 22.172C19.7408 24.8721 17.9912 28.2336 17.2461 31.8762C16.5009 35.5189 16.7898 39.2974 18.0804 42.7844C19.3708 46.2713 21.6112 49.3277 24.5482 51.6076C30.5173 56.2186 34.9308 62.5472 37.1951 69.7419C37.4369 70.512 37.9178 71.1849 38.5679 71.6633C39.2179 72.1417 40.0035 72.4005 40.8107 72.4023C41.1222 72.4014 41.4325 72.363 41.7349 72.2878" stroke="#313553" stroke-width="0.254595" stroke-linecap="round" stroke-linejoin="round"/>
<path d="M40.6313 75.7264C40.4093 75.5467 40.2302 75.3198 40.1068 75.0622C39.9834 74.8047 39.9189 74.5228 39.918 74.2373C39.9186 73.8153 40.0587 73.4054 40.3167 73.0715C40.5746 72.7376 40.9357 72.4983 41.3439 72.3911L41.7363 72.2894L42.2199 72.1621L49.6544 70.2165L50.2788 70.0538L50.8128 69.9137C51.0556 69.8497 51.3085 69.8342 51.5573 69.868C51.806 69.9018 52.0457 69.9843 52.2625 70.1108C52.4794 70.2372 52.6691 70.4052 52.8211 70.6051C52.973 70.8049 53.084 71.0327 53.1479 71.2755C53.1882 71.4338 53.2087 71.5965 53.2089 71.7598C53.2091 72.1823 53.0692 72.5928 52.8112 72.9272C52.5532 73.2617 52.1917 73.5012 51.783 73.6083L42.3118 76.0865C42.0233 76.1625 41.7209 76.1701 41.4293 76.1068C41.1375 76.0443 40.8649 75.9133 40.6335 75.7249" stroke="#313553" stroke-width="0.254595" stroke-linecap="round" stroke-linejoin="round"/>
<path d="M42.1543 41.5762L49.6475 70.1873" stroke="#313553" stroke-width="0.254595" stroke-linecap="round" stroke-linejoin="round"/>
<path d="M38.5615 43.4548C39.9595 44.4837 41.6099 44.4987 42.1545 41.5762" stroke="#313553" stroke-width="0.254595" stroke-linecap="round" stroke-linejoin="round"/>
<path d="M38.5607 43.455C39.4729 41.3926 39.2869 38.0572 37.3895 38.5536C35.3655 39.0831 36.7484 42.121 38.5607 43.455Z" stroke="#313553" stroke-width="0.254595" stroke-linecap="round" stroke-linejoin="round"/>
<path d="M42.2127 72.1355L34.7188 43.5244C36.4708 45.8993 37.8507 45.0648 38.5603 43.4551" stroke="#313553" stroke-width="0.254595" stroke-linecap="round" stroke-linejoin="round"/>
<path d="M53.0345 73.7288C53.3987 73.8872 53.7044 74.1553 53.9093 74.4956C54.1141 74.836 54.2077 75.2316 54.1773 75.6277C54.1467 76.0237 53.9936 76.4005 53.7392 76.7056C53.4846 77.0106 53.1415 77.2283 52.7573 77.3293L43.2876 79.8089C43.045 79.8722 42.7922 79.8873 42.5439 79.8534C42.2955 79.8187 42.0563 79.7359 41.8399 79.6093C41.6235 79.4828 41.4343 79.314 41.2829 79.1144C41.1316 78.9148 41.0211 78.6866 40.9578 78.4441C40.9158 78.2866 40.8946 78.1239 40.8945 77.9605C40.8951 77.5387 41.0353 77.1289 41.2932 76.7945C41.5512 76.4608 41.9123 76.2212 42.3204 76.1143L51.7894 73.6346C52.2034 73.5265 52.6415 73.5597 53.0345 73.7288Z" stroke="#313553" stroke-width="0.254595" stroke-linecap="round" stroke-linejoin="round"/>
<path d="M50.4518 81.9118L47.2565 82.7471C46.7714 82.8744 46.2659 82.9053 45.7689 82.8375C45.2718 82.769 44.7931 82.604 44.3602 82.3509C43.9271 82.0971 43.5483 81.7612 43.2454 81.3612C42.9424 80.9612 42.7213 80.5055 42.5947 80.0204L53.1793 77.25C53.2615 77.5671 53.3032 77.8925 53.3036 78.2202C53.3026 79.0638 53.0222 79.8841 52.5064 80.5515C51.9905 81.2196 51.2681 81.6979 50.4518 81.9118Z" stroke="#313553" stroke-width="0.254595" stroke-linecap="round" stroke-linejoin="round"/>
<path d="M136.484 73.1047C141.254 75.889 144.756 80.4171 146.252 85.7335C147.748 91.0506 147.121 96.7399 144.503 101.604C141.885 106.466 137.48 110.123 132.219 111.802C126.957 113.481 121.249 113.051 116.298 110.602C111.347 108.154 107.54 103.878 105.681 98.6772C103.822 93.4768 104.054 87.7567 106.331 82.7243C108.607 77.6927 112.748 73.7405 117.882 71.7026C123.015 69.6646 128.74 69.6999 133.847 71.8008C134.756 72.1725 135.636 72.6074 136.484 73.1024" stroke="#313553" stroke-width="0.254595" stroke-linecap="round" stroke-linejoin="round"/>
<path d="M52.9248 73.4085L52.973 73.3987L67.6898 70.623" stroke="#313553" stroke-width="0.254595" stroke-linecap="round" stroke-linejoin="round"/>
<path d="M91.0285 85.6363L99.2803 129.39L15.8476 145.13L4.05859 82.6241L40.6322 75.7236H40.6345" stroke="#313553" stroke-width="0.254595" stroke-linecap="round" stroke-linejoin="round"/>
<path d="M14.5488 90.2917L64.1708 80.9297" stroke="#313553" stroke-width="0.254595" stroke-linecap="round" stroke-linejoin="round"/>
<path d="M11.2101 85.5563C11.278 85.9193 11.2367 86.2944 11.0916 86.6334C10.9464 86.9731 10.7039 87.2624 10.3947 87.4642C10.0855 87.6653 9.72332 87.7715 9.35408 87.767C8.98492 87.7633 8.62509 87.6503 8.32018 87.4416C8.01531 87.2337 7.77897 86.94 7.64106 86.5972C7.50314 86.2545 7.46983 85.8787 7.54532 85.5171C7.62082 85.1563 7.80174 84.8249 8.06523 84.5665C8.32869 84.3074 8.66298 84.1326 9.02574 84.0641C9.26716 84.0181 9.51527 84.0204 9.75586 84.0709C9.99637 84.1213 10.2247 84.2185 10.4276 84.3571C10.6305 84.4957 10.8041 84.6727 10.9384 84.8783C11.0727 85.0847 11.165 85.3145 11.2101 85.5563Z" stroke="#313553" stroke-width="0.254595" stroke-linecap="round" stroke-linejoin="round"/>
<path d="M19.0319 84.0786C19.1003 84.4417 19.0596 84.8168 18.9149 85.1565C18.7702 85.4962 18.528 85.7855 18.2189 85.9881C17.9099 86.19 17.5478 86.2962 17.1785 86.2924C16.8092 86.2894 16.4491 86.1764 16.144 85.9685C15.8388 85.7599 15.6021 85.4661 15.4639 85.1241C15.3256 84.7814 15.292 84.4055 15.3674 84.044C15.4427 83.6824 15.6235 83.351 15.8869 83.0919C16.1504 82.8335 16.4847 82.6588 16.8475 82.5895C17.0887 82.5435 17.3366 82.5458 17.5769 82.5963C17.8173 82.646 18.0454 82.7431 18.2482 82.8817C18.4511 83.0196 18.6247 83.1966 18.7592 83.4022C18.8937 83.6079 18.9863 83.8376 19.0319 84.0786Z" stroke="#313553" stroke-width="0.254595" stroke-linecap="round" stroke-linejoin="round"/>
<path d="M26.8537 82.6047C26.9215 82.9678 26.8803 83.3429 26.7352 83.6819C26.59 84.0216 26.3475 84.3108 26.0383 84.5127C25.729 84.7138 25.3669 84.82 24.9977 84.8155C24.6284 84.8117 24.2687 84.6988 23.9638 84.4901C23.6588 84.2822 23.4226 83.9884 23.2846 83.6457C23.1467 83.303 23.1134 82.9271 23.1889 82.5656C23.2644 82.2048 23.4453 81.8733 23.7088 81.615C23.9723 81.3559 24.3066 81.1811 24.6693 81.1126C24.9107 81.0666 25.1588 81.0696 25.3992 81.1201C25.6397 81.1698 25.868 81.267 26.0708 81.4056C26.2736 81.5442 26.4472 81.7219 26.5816 81.9276C26.7159 82.1332 26.8084 82.363 26.8537 82.6047Z" stroke="#313553" stroke-width="0.254595" stroke-linecap="round" stroke-linejoin="round"/>
<path d="M104.429 88.198L91.0291 85.637L65.7451 80.8042L67.6907 70.6219L67.9431 69.3135L75.7188 28.625L142.543 41.3992L136.483 73.1023V73.1046" stroke="#313553" stroke-width="0.254595" stroke-linecap="round" stroke-linejoin="round"/>
<path d="M81.7559 37.2012L134.923 47.3631" stroke="#313553" stroke-width="0.254595" stroke-linecap="round" stroke-linejoin="round"/>
<path d="M80.3792 33.093C80.3212 33.396 80.1751 33.6751 79.9581 33.8949C79.742 34.1147 79.4648 34.2653 79.1627 34.3279C78.8607 34.3903 78.5466 34.3618 78.2611 34.2459C77.9749 34.1301 77.7301 33.932 77.5568 33.6768C77.3836 33.4216 77.2894 33.1207 77.2872 32.8122C77.2849 32.5037 77.3738 32.2014 77.5433 31.9435C77.7127 31.6857 77.9545 31.4839 78.2385 31.3636C78.5232 31.2434 78.8366 31.21 79.1394 31.2679C79.3405 31.3063 79.5326 31.384 79.7035 31.4965C79.8745 31.609 80.0222 31.7541 80.1374 31.9236C80.2527 32.0931 80.3333 32.2836 80.3747 32.4842C80.4161 32.6849 80.4176 32.8917 80.3792 33.093Z" stroke="#313553" stroke-width="0.254595" stroke-linecap="round" stroke-linejoin="round"/>
<path d="M86.9081 34.3388C86.8501 34.642 86.7039 34.9212 86.487 35.1412C86.2708 35.3611 85.9936 35.5118 85.6916 35.5744C85.3888 35.6369 85.0747 35.6085 84.7892 35.4925C84.503 35.3766 84.2574 35.1785 84.0842 34.9232C83.9109 34.6679 83.8168 34.3668 83.8145 34.0582C83.8122 33.7496 83.9011 33.4471 84.0706 33.1891C84.2401 32.9312 84.4826 32.7292 84.7666 32.6088C85.0506 32.4885 85.3639 32.4552 85.6675 32.513C85.8693 32.5511 86.0607 32.6287 86.2324 32.7411C86.4041 32.8536 86.5518 32.9988 86.667 33.1684C86.7823 33.3381 86.8629 33.5287 86.9043 33.7296C86.9457 33.9304 86.9465 34.1375 86.9081 34.3388Z" stroke="#313553" stroke-width="0.254595" stroke-linecap="round" stroke-linejoin="round"/>
<path d="M93.4395 35.5909C93.3808 35.8938 93.2339 36.1726 93.017 36.3921C92.8 36.6116 92.5236 36.7618 92.2208 36.8239C91.9187 36.886 91.6046 36.857 91.3192 36.7408C91.0337 36.6246 90.7881 36.4262 90.6156 36.1708C90.4424 35.9154 90.3482 35.6145 90.3467 35.306C90.3445 34.9974 90.4333 34.6952 90.6028 34.4374C90.7731 34.1796 91.0148 33.9779 91.2988 33.8576C91.5835 33.7375 91.8969 33.7042 92.1997 33.7621C92.6064 33.8405 92.9657 34.0771 93.1977 34.42C93.4305 34.7629 93.5171 35.184 93.4395 35.5909Z" stroke="#313553" stroke-width="0.254595" stroke-linecap="round" stroke-linejoin="round"/>
<path d="M133.515 66.7686C134.085 67.6167 134.217 69.1111 133.851 71.8025" stroke="#313553" stroke-width="0.254595" stroke-linecap="round" stroke-linejoin="round"/>
<path d="M128.215 70.1866C128.956 68.1242 129.692 66.4053 130.814 65.9014" stroke="#313553" stroke-width="0.254595" stroke-linecap="round" stroke-linejoin="round"/>
<path d="M114.927 58.0166C116.605 60.4074 114.701 67.5571 115.011 73.0061" stroke="#313553" stroke-width="0.254595" stroke-linecap="round" stroke-linejoin="round"/>
<path d="M101.569 47.5752C105.269 52.1504 97.8786 72.405 102.866 73.2125C107.818 74.0117 108.44 59.789 112.244 57.5074" stroke="#313553" stroke-width="0.254595" stroke-linecap="round" stroke-linejoin="round"/>
<path d="M82.2599 48.5672C86.0637 53.2192 77.4655 76.6691 85.2314 77.9707C93.1404 79.2972 93.4417 49.6617 98.9298 46.8867" stroke="#313553" stroke-width="0.254595" stroke-linecap="round" stroke-linejoin="round"/>
<path d="M67.9424 69.3141C71.0819 69.7314 74.061 50.3678 79.4481 48.0049" stroke="#313553" stroke-width="0.254595" stroke-linecap="round" stroke-linejoin="round"/>
<path d="M30.6407 99.0434C31.7506 99.9909 32.6228 101.185 33.1872 102.531C33.7515 103.876 33.9923 105.335 33.8901 106.791C33.7879 108.246 33.3456 109.658 32.5988 110.911C31.8519 112.165 30.8214 113.225 29.59 114.009C28.3587 114.791 26.9608 115.274 25.5088 115.419C24.0568 115.563 22.5912 115.365 21.2298 114.84C19.8685 114.315 18.6493 113.477 17.6703 112.395C16.6914 111.313 15.98 110.017 15.5932 108.61C15.5239 108.365 15.4682 108.118 15.42 107.866C15.0615 105.969 15.3006 104.008 16.1043 102.252C16.9079 100.497 18.2366 99.0343 19.9068 98.0664C21.5771 97.0977 23.5066 96.6722 25.4293 96.8469C27.3519 97.0224 29.1728 97.7892 30.6407 99.0434Z" stroke="#313553" stroke-width="0.254595" stroke-linecap="round" stroke-linejoin="round"/>
<path d="M28.8837 100.976C30.0567 101.953 30.862 103.299 31.167 104.795C31.472 106.291 31.2584 107.846 30.5615 109.204C29.8646 110.562 28.7258 111.642 27.3328 112.267C25.94 112.89 24.3759 113.022 22.8984 112.638C21.421 112.255 20.1182 111.379 19.2046 110.157C18.2912 108.934 17.8214 107.436 17.873 105.911C17.9244 104.385 18.494 102.923 19.4879 101.764C20.4817 100.605 21.8406 99.8202 23.3406 99.537C24.3134 99.3509 25.3155 99.3833 26.2742 99.6319C27.233 99.8805 28.1243 100.34 28.8837 100.976Z" stroke="#313553" stroke-width="0.254595" stroke-linecap="round" stroke-linejoin="round"/>
<path d="M25.8311 112.734L26.3146 115.304" stroke="#313553" stroke-width="0.254595" stroke-linecap="round" stroke-linejoin="round"/>
<path d="M28.8848 100.976L30.6413 99.043" stroke="#313553" stroke-width="0.254595" stroke-linecap="round" stroke-linejoin="round"/>
<path d="M18.1278 108.13L15.5924 108.609L15.5615 108.614" stroke="#313553" stroke-width="0.254595" stroke-linecap="round" stroke-linejoin="round"/>
<path d="M85.2461 124.5L92.9329 123.049L85.9285 85.915" stroke="#313553" stroke-width="0.254595" stroke-linecap="round" stroke-linejoin="round"/>
<path d="M74.8174 126.465L81.5604 125.194" stroke="#313553" stroke-width="0.254595" stroke-linecap="round" stroke-linejoin="round"/>
<path d="M71.1328 127.161L74.8169 126.468" stroke="#313553" stroke-width="0.254595" stroke-linecap="round" stroke-linejoin="round"/>
<path d="M64.3887 128.434L71.1332 127.163" stroke="#313553" stroke-width="0.254595" stroke-linecap="round" stroke-linejoin="round"/>
<path d="M53.959 130.403L60.7035 129.13" stroke="#313553" stroke-width="0.254595" stroke-linecap="round" stroke-linejoin="round"/>
<path d="M43.2979 132.413L50.2744 131.097" stroke="#313553" stroke-width="0.254595" stroke-linecap="round" stroke-linejoin="round"/>
<path d="M26.7877 122.733L19.8006 124.052L19.0195 119.907L26.0058 118.591L26.7877 122.733Z" stroke="#313553" stroke-width="0.254595" stroke-linecap="round" stroke-linejoin="round"/>
<path d="M27.9547 128.908L20.9676 130.227L20.1865 126.082L27.1728 124.766L27.9547 128.908Z" stroke="#313553" stroke-width="0.254595" stroke-linecap="round" stroke-linejoin="round"/>
<path d="M29.1185 135.086L22.1344 136.405L21.3525 132.259L28.3366 130.943L29.1185 135.086Z" stroke="#313553" stroke-width="0.254595" stroke-linecap="round" stroke-linejoin="round"/>
<path d="M53.9577 130.402L50.2736 131.098L49.4917 126.953L43.1133 93.1493L46.8004 92.4541L53.1758 126.257L53.9577 130.402Z" stroke="#313553" stroke-width="0.254595" stroke-linecap="round" stroke-linejoin="round"/>
<path d="M64.3883 128.434L60.7035 129.129L57.2002 110.562L53.5439 91.1806L57.2311 90.4854L60.8873 109.867L64.3883 128.434Z" stroke="#313553" stroke-width="0.254595" stroke-linecap="round" stroke-linejoin="round"/>
<path d="M74.8163 126.467L71.1322 127.162V127.16L69.1843 116.84L63.9727 89.2138L67.6568 88.5186L72.8692 116.145L74.8163 126.465V126.467Z" stroke="#313553" stroke-width="0.254595" stroke-linecap="round" stroke-linejoin="round"/>
<path d="M85.2458 124.499L81.5594 125.194L76.9202 100.59L74.4014 87.246L78.0862 86.5508L80.6043 99.8952L85.2458 124.499Z" stroke="#313553" stroke-width="0.254595" stroke-linecap="round" stroke-linejoin="round"/>
<path d="M49.4922 126.952L53.1763 126.257" stroke="#313553" stroke-width="0.254595" stroke-linecap="round" stroke-linejoin="round"/>
<path d="M57.1992 110.561L60.8833 109.866" stroke="#313553" stroke-width="0.254595" stroke-linecap="round" stroke-linejoin="round"/>
<path d="M69.1846 116.84L72.8694 116.146" stroke="#313553" stroke-width="0.254595" stroke-linecap="round" stroke-linejoin="round"/>
<path d="M76.9199 100.591L80.604 99.8955" stroke="#313553" stroke-width="0.254595" stroke-linecap="round" stroke-linejoin="round"/>
<path d="M140.872 76.4883L125.659 91.7022L110.445 106.915" stroke="#313553" stroke-width="0.254595" stroke-linecap="round" stroke-linejoin="round"/>
<path d="M110.445 76.4883L125.659 91.7022" stroke="#313553" stroke-width="0.254595" stroke-linecap="round" stroke-linejoin="round"/>
<path d="M30.4679 13.2755L28.627 6.45117" stroke="#313553" stroke-width="0.254595" stroke-linecap="round" stroke-linejoin="round"/>
<path d="M38.4453 13.2758L39.1888 7.15723" stroke="#313553" stroke-width="0.254595" stroke-linecap="round" stroke-linejoin="round"/>
<path d="M23.4253 17.9703L19.3721 13.2754" stroke="#313553" stroke-width="0.254595" stroke-linecap="round" stroke-linejoin="round"/>
</svg>
